<?xml version="1.0" standalone="no"?>
<!DOCTYPE svg PUBLIC "-//W3C//DTD SVG 20010904//EN"
 "http://www.w3.org/TR/2001/REC-SVG-20010904/DTD/svg10.dtd">
<svg version="1.0" xmlns="http://www.w3.org/2000/svg"
 width="673.000000pt" height="673.000000pt" viewBox="0 0 673.000000 673.000000"
 preserveAspectRatio="xMidYMid meet">
<metadata>
Created by potrace 1.16, written by Peter Selinger 2001-2019
</metadata>
<g transform="translate(0.000000,673.000000) scale(0.100000,-0.100000)"
fill="#000000" stroke="none">
<path d="M3030 6719 c-967 -106 -1802 -583 -2377 -1356 -325 -437 -535 -950
-625 -1523 -20 -129 -22 -182 -22 -475 0 -293 2 -346 22 -475 90 -573 300
-1086 625 -1523 546 -735 1315 -1195 2237 -1339 129 -20 182 -22 475 -22 293
0 346 2 475 22 922 144 1691 604 2237 1339 325 437 535 950 625 1523 20 129
22 182 22 475 0 293 -2 346 -22 475 -88 560 -290 1061 -601 1490 -544 751
-1330 1228 -2256 1371 -114 17 -194 22 -435 24 -162 2 -333 -1 -380 -6z m607
-420 c454 -37 873 -169 1254 -394 424 -251 743 -556 1009 -966 75 -116 237
-440 285 -572 126 -345 175 -623 175 -997 0 -315 -31 -534 -120 -848 -147
-519 -462 -1009 -899 -1399 -407 -364 -916 -605 -1483 -703 -103 -18 -223 -30
-428 -43 -91 -6 -356 12 -499 34 -343 53 -786 202 -825 277 -37 73 -27 130 34
189 46 45 87 51 158 24 317 -122 475 -164 789 -210 96 -14 475 -14 582 0 368
49 694 152 976 306 782 430 1317 1228 1410 2103 62 577 -85 1181 -407 1670
-419 637 -1023 1050 -1748 1194 -137 27 -347 46 -515 46 -397 0 -773 -78
-1075 -224 -41 -20 -85 -36 -98 -36 -34 0 -96 35 -126 70 -48 57 -29 162 38
205 85 56 368 159 560 205 296 70 642 95 953 69z m-1785 -515 c43 -42 61 -90
53 -144 -8 -51 -31 -77 -170 -185 -115 -89 -329 -297 -412 -400 -138 -171
-307 -443 -390 -630 -311 -695 -309 -1478 4 -2145 193 -412 455 -744 814
-1030 145 -116 172 -150 171 -222 -1 -80 -85 -177 -142 -163 -44 11 -239 156
-382 283 -445 397 -778 949 -918 1522 -10 41 -31 147 -46 235 -25 146 -27 184
-28 425 0 267 4 321 45 560 98 568 417 1165 841 1576 138 134 282 252 393 323
63 41 120 39 167 -5z m2459 -183 c145 -24 287 -138 329 -266 18 -55 22 -83 18
-160 -3 -85 -8 -101 -43 -170 -44 -87 -98 -140 -190 -188 -57 -30 -66 -31
-175 -32 -104 0 -120 3 -172 27 -72 33 -139 95 -184 169 l-35 59 -923 0 -922
0 -140 -142 c-77 -79 -159 -166 -182 -194 -49 -61 -162 -224 -162 -236 0 -4
739 -9 1643 -10 l1642 -3 65 -22 c99 -34 187 -90 270 -173 124 -123 173 -243
173 -425 1 -167 -45 -282 -162 -407 l-70 -75 55 -54 c131 -128 178 -243 177
-429 0 -131 -16 -195 -78 -305 -68 -122 -201 -229 -347 -278 -61 -21 -81 -22
-650 -25 l-586 -3 -36 36 -36 36 2 769 3 768 25 27 c78 83 204 71 252 -25 15
-29 18 -63 18 -202 l0 -168 444 0 444 0 58 31 c76 39 138 100 172 169 36 74
37 180 3 257 -26 59 -96 129 -162 165 l-44 23 -1723 3 -1723 2 -14 -34 c-48
-114 -107 -387 -126 -576 -29 -299 25 -699 125 -924 l25 -56 748 2 748 3 3
313 2 312 -336 0 -336 0 -29 29 c-27 28 -29 34 -29 111 0 54 5 91 16 111 29
57 42 59 496 59 384 0 416 -1 448 -19 74 -39 72 -20 73 -600 1 -498 0 -519
-19 -552 -11 -18 -35 -42 -53 -53 -33 -19 -56 -19 -802 -17 -437 1 -769 -1
-769 -6 0 -13 53 -94 111 -171 57 -76 260 -285 332 -343 l49 -39 958 0 957 0
42 65 c69 107 166 170 298 195 157 31 362 -76 432 -225 113 -240 -23 -520
-283 -586 -57 -14 -172 -7 -236 15 -64 23 -139 83 -182 146 -20 30 -44 63 -52
73 -15 16 -77 17 -1024 17 -941 0 -1009 1 -1039 17 -51 29 -266 218 -354 312
-280 298 -488 697 -572 1096 -47 223 -52 270 -51 520 0 232 6 302 41 490 63
341 218 683 452 995 107 144 394 424 501 489 l35 21 950 0 c523 0 955 4 960 8
6 4 23 27 37 52 69 117 190 189 353 209 6 0 35 -3 66 -8z"/>
<path d="M4190 5355 c-68 -31 -110 -94 -110 -165 0 -89 80 -170 169 -170 135
0 221 133 161 250 -40 78 -145 118 -220 85z"/>
<path d="M3890 2875 l0 -316 463 3 462 3 51 27 c105 55 165 151 172 273 4 69
1 88 -21 136 -26 58 -82 120 -132 147 -75 39 -117 42 -562 42 l-433 0 0 -315z"/>
<path d="M4252 1700 c-62 -38 -94 -119 -72 -185 36 -109 140 -154 240 -102
105 53 109 215 6 285 -43 29 -127 30 -174 2z"/>
</g>
</svg>
